<svg height="512pt" viewBox="0 0 512 512.00076" width="512pt" xmlns="http://www.w3.org/2000/svg"><path d="m434.328125 77.671875c1.15625-20.660156-6.339844-41.714844-22.511719-57.257813-28.738281-27.621093-74.859375-27.148437-103.058594 1.023438-19.839843 19.820312-26.003906 48.136719-18.503906 73.242188 3.449219 11.546874.023438 24.058593-8.5 32.582031l-154.492187 154.492187c-8.523438 8.523438-21.035157 11.953125-32.582031 8.5-25.105469-7.5-53.421876-1.335937-73.242188 18.503906-28.171875 28.199219-28.640625 74.320313-1.019531 103.058594 15.539062 16.171875 36.59375 23.667969 57.253906 22.511719-1.152344 20.660156 6.339844 41.714844 22.511719 57.257813 28.738281 27.621093 74.859375 27.148437 103.058594-1.023438 19.839843-19.820312 26.003906-48.136719 18.503906-73.242188-3.449219-11.546874-.019532-24.058593 8.5-32.582031l154.492187-154.492187c8.523438-8.523438 21.035157-11.953125 32.582031-8.5 25.105469 7.5 53.421876 1.335937 73.242188-18.503906 28.171875-28.199219 28.644531-74.320313 1.023438-103.058594-15.542969-16.171875-36.597657-23.667969-57.257813-22.511719zm0 0" fill="#e9e9e9"/><path d="m491.585938 100.183594c-3.839844-3.996094-8.015626-7.453125-12.4375-10.390625 18.984374 28.589843 15.84375 67.789062-9.1875 92.84375-19.820313 19.84375-48.136719 26.003906-73.242188 18.503906-11.550781-3.449219-24.0625-.023437-32.582031 8.5l-154.496094 154.496094c-8.519531 8.519531-11.949219 21.035156-8.5 32.582031 7.503906 25.105469 1.339844 53.421875-18.5 73.242188-25.058594 25.03125-64.257813 28.171874-92.847656 9.1875 2.9375 4.421874 6.394531 8.597656 10.390625 12.4375 28.738281 27.621093 74.859375 27.148437 103.058594-1.019532 19.839843-19.820312 26.003906-48.140625 18.503906-73.246094-3.453125-11.542968-.023438-24.058593 8.5-32.578124l154.492187-154.496094c8.523438-8.523438 21.035157-11.953125 32.582031-8.5 25.105469 7.5 53.421876 1.335937 73.242188-18.503906 28.171875-28.199219 28.644531-74.320313 1.023438-103.058594zm0 0" fill="#d3d2d8"/><g fill="#424952"><path d="m196.8125 328.125c-1.976562 0-3.953125-.753906-5.460938-2.261719l-11.183593-11.183593c-3.019531-3.015626-3.019531-7.910157 0-10.925782 3.015625-3.015625 7.910156-3.019531 10.925781 0l11.183594 11.183594c3.015625 3.015625 3.015625 7.90625 0 10.925781-1.507813 1.507813-3.484375 2.261719-5.464844 2.261719zm0 0"/><path d="m320.398438 204.539062c-1.976563 0-3.953126-.753906-5.460938-2.261718l-11.183594-11.183594c-3.015625-3.019531-3.015625-7.910156 0-10.925781 3.019532-3.015625 7.910156-3.019531 10.925782 0l11.183593 11.183593c3.015625 3.015626 3.015625 7.910157 0 10.925782-1.507812 1.507812-3.488281 2.261718-5.464843 2.261718zm0 0"/><path d="m244.378906 280.867188c-.773437 0-1.546875-.027344-2.320312-.078126-4.257813-.285156-7.476563-3.96875-7.1875-8.226562.285156-4.257812 3.964844-7.480469 8.222656-7.191406 5.820312.390625 11.652344-1.890625 16.019531-6.257813 4.367188-4.367187 6.648438-10.207031 6.257813-16.015625-.285156-4.257812 2.933594-7.941406 7.191406-8.226562 4.253906-.292969 7.941406 2.933594 8.226562 7.1875.6875 10.261718-3.230468 20.460937-10.75 27.980468-6.953124 6.953126-16.195312 10.828126-25.660156 10.828126zm0 0"/></g></svg>