<svg height="512pt" viewBox="0 0 512.001 512" width="512pt" xmlns="http://www.w3.org/2000/svg"><path d="m440.402344 161.253906v327.402344h-368.804688v-327.402344l184.402344-123.136718zm0 0" fill="#b0693c"/><g fill="#9c5d35"><path d="m409.496094 140.371094v340.722656h30.90625v-319.839844zm0 0"/><path d="m71.597656 419.285156h368.804688v69.371094h-368.804688zm0 0"/><path d="m71.597656 295.664062h368.804688v61.808594h-368.804688zm0 0"/><path d="m71.597656 172.039062h368.804688v61.8125h-368.804688zm0 0"/></g><path d="m409.496094 419.285156h30.90625v69.371094h-30.90625zm0 0" fill="#8c542f"/><path d="m409.496094 295.664062h30.90625v61.808594h-30.90625zm0 0" fill="#8c542f"/><path d="m409.496094 172.039062h30.90625v61.8125h-30.90625zm0 0" fill="#8c542f"/><path d="m353.867188 488.65625h-195.734376v-156.28125c0-54.050781 43.816407-97.867188 97.867188-97.867188s97.867188 43.816407 97.867188 97.867188zm0 0" fill="#633327"/><path d="m256 234.507812c-5.257812 0-10.417969.417969-15.453125 1.21875 46.707031 7.40625 82.414063 47.855469 82.414063 96.648438v156.28125h30.90625v-156.28125c0-54.050781-43.816407-97.867188-97.867188-97.867188zm0 0" fill="#572d22"/><path d="m363.992188 110.230469h-215.984376l92.558594-61.8125h30.867188zm0 0" fill="#9c5d35"/><path d="m286.90625 167.40625c0 17.066406-13.835938 30.902344-30.90625 30.902344s-30.90625-13.835938-30.90625-30.902344c0-17.070312 13.835938-30.90625 30.90625-30.90625s30.90625 13.835938 30.90625 30.90625zm0 0" fill="#89ceea"/><path d="m512 177.378906v49.914063c0 3.21875-3.605469 5.117187-6.261719 3.300781l-243.917969-167.0625c-3.507812-2.402344-8.132812-2.402344-11.640624 0l-243.917969 167.0625c-2.65625 1.820312-6.261719-.082031-6.261719-3.300781v-49.914063c0-2.636718 1.300781-5.105468 3.480469-6.597656l246.699219-168.976562c3.507812-2.40625 8.132812-2.40625 11.640624 0l246.699219 168.976562c2.179688 1.488281 3.480469 3.960938 3.480469 6.597656zm0 0" fill="#ffd659"/><path d="m512 177.378906v49.914063c0 3.21875-3.605469 5.117187-6.261719 3.300781l-24.644531-16.882812-219.273438-150.179688c-3.511718-2.398438-8.128906-2.398438-11.640624 0l-243.917969 167.0625c-2.65625 1.816406-6.261719-.082031-6.261719-3.300781v-22.875l250.179688-171.347657c3.511718-2.402343 8.128906-2.402343 11.640624 0l200.492188 137.316407c7.964844 5.453125 18.78125-.25 18.78125-9.902344v-8.492187l27.425781 18.789062c2.179688 1.492188 3.480469 3.960938 3.480469 6.597656zm0 0" fill="#ffbd54"/><path d="m183.886719 488.65625h-164.828125l8.394531-65.773438c.265625-2.054687 2.015625-3.597656 4.089844-3.597656h139.859375c2.074218 0 3.824218 1.542969 4.089844 3.597656zm0 0" fill="#ff573d"/><path d="m171.402344 419.285156h-27.964844l8.859375 69.371094h31.589844l-8.398438-65.773438c-.261719-2.058593-2.011719-3.597656-4.085937-3.597656zm0 0" fill="#e64028"/><path d="m496.546875 512h-481.09375c-8.535156 0-15.453125-6.917969-15.453125-15.453125 0-8.53125 6.917969-15.453125 15.453125-15.453125h481.09375c8.535156 0 15.453125 6.917969 15.453125 15.453125s-6.917969 15.453125-15.453125 15.453125zm0 0" fill="#d9a990"/><path d="m496.546875 481.09375h-30.90625c8.535156 0 15.453125 6.917969 15.453125 15.453125s-6.917969 15.453125-15.453125 15.453125h30.90625c8.535156 0 15.453125-6.917969 15.453125-15.453125 0-8.53125-6.917969-15.453125-15.453125-15.453125zm0 0" fill="#c7957b"/><path d="m256 129c-21.175781 0-38.40625 17.230469-38.40625 38.40625s17.230469 38.40625 38.40625 38.40625 38.40625-17.230469 38.40625-38.40625c0-21.179688-17.230469-38.40625-38.40625-38.40625zm0 61.8125c-12.90625 0-23.40625-10.5-23.40625-23.40625s10.5-23.40625 23.40625-23.40625 23.40625 10.5 23.40625 23.40625c0 12.902344-10.5 23.40625-23.40625 23.40625zm0 0" fill="#633327"/></svg>