<svg viewBox="0 -61 511.99895 511" xmlns="http://www.w3.org/2000/svg"><path d="m463.585938 59.5625c-5.753907-.335938-10.3125-4.894531-10.648438-10.652344-1.128906-19.222656-11.800781-36.59375-29.421875-44.367187-25.953125-11.453125-57.132813 2.253906-69.644531 30.609375-5.949219 13.476562-6.597656 27.828125-2.867188 40.417968 2.085938 7.019532.082032 14.621094-5.097656 19.800782l-128.609375 128.609375c-5.179687 5.179687-12.777344 7.183593-19.800781 5.097656-12.589844-3.734375-26.941406-3.082031-40.417969 2.863281-28.355469 12.511719-42.058594 43.695313-30.609375 69.648438 7.773438 17.617187 25.144531 28.292968 44.367188 29.417968 5.757812.335938 10.316406 4.894532 10.652343 10.652344 1.128907 19.226563 11.800781 36.59375 29.421875 44.367188 25.953125 11.453125 57.132813-2.25 69.644532-30.609375 5.945312-13.472657 6.597656-27.828125 2.863281-40.414063-2.082031-7.023437-.082031-14.625 5.101562-19.804687l128.609375-128.609375c5.179688-5.179688 12.777344-7.183594 19.800782-5.097656 12.585937 3.734374 26.941406 3.082031 40.417968-2.863282 28.355469-12.511718 42.058594-43.695312 30.609375-69.648437-7.773437-17.617188-25.144531-28.289063-44.371093-29.417969zm0 0" fill="#f3e5b7"/><g fill="#e8d8a5"><path d="m290.808594 253.644531c-1.917969 0-3.839844-.734375-5.304688-2.199219-2.925781-2.925781-2.925781-7.675781 0-10.605468l28.539063-28.535156c2.929687-2.929688 7.675781-2.929688 10.605469 0 2.929687 2.929687 2.929687 7.679687 0 10.605468l-28.535157 28.539063c-1.464843 1.460937-3.386719 2.195312-5.304687 2.195312zm0 0"/><path d="m231.261719 264.875c-1.917969 0-3.839844-.734375-5.304688-2.199219-2.929687-2.925781-2.929687-7.675781 0-10.605469l11.089844-11.089843c2.929687-2.929688 7.679687-2.929688 10.605469 0 2.929687 2.929687 2.929687 7.679687 0 10.605469l-11.089844 11.089843c-1.460938 1.46875-3.382812 2.199219-5.300781 2.199219zm0 0"/><path d="m429.195312 94.792969c-2.410156-2.339844-3.042968-5.945313-1.582031-8.964844 9.546875-19.71875 8.925781-42.285156-2.019531-60.363281-6.675781-11.027344-16.550781-19.425782-28.246094-24.457032-18.097656 2.566407-35.035156 15.015626-43.476562 34.144532-5.945313 13.472656-6.597656 27.828125-2.863282 40.414062 2.082032 7.023438.078126 14.625-5.101562 19.804688l-89.429688 89.429687 62.183594-10.964843c.425782-.074219.859375-.113282 1.289063-.113282 2.210937 0 4.242187.964844 5.578125 2.640625 10.378906 13.0625 25.40625 22.097657 42.308594 25.441407 4.195312.832031 8.460937 1.277343 12.703124 1.375l36.78125-36.777344c5.175782-5.175782 12.757813-6.917969 19.78125-4.863282 2.449219.71875 4.96875 1.265626 7.535157 1.644532 1.4375-3.507813 2.554687-7.175782 3.308593-10.976563 4.097657-20.730469-3.035156-42.148437-18.75-57.414062zm0 0"/></g><path d="m415.875 100.167969c-4.523438-3.578125-5.640625-9.925781-2.613281-14.835938 10.101562-16.394531 11.320312-36.746093 1.347656-53.21875-14.691406-24.269531-48.09375-30.925781-74.605469-14.875-12.601562 7.628907-21.367187 19.011719-25.527344 31.464844-2.324218 6.949219-8.320312 12.023437-15.535156 13.296875l-179.117187 31.582031c-7.214844 1.273438-14.589844-1.445312-19.148438-7.179687-8.167969-10.28125-20.300781-17.980469-34.746093-20.835938-30.40625-6.019531-59.519532 11.664063-65.023438 39.492188-3.738281 18.890625 4.367188 37.597656 19.46875 49.546875 4.523438 3.578125 5.644531 9.925781 2.617188 14.835937-10.105469 16.394532-11.324219 36.746094-1.351563 53.21875 14.691406 24.265625 48.097656 30.925782 74.609375 14.875 12.597656-7.628906 21.367188-19.011718 25.527344-31.464844 2.320312-6.949218 8.320312-12.023437 15.535156-13.296874l179.117188-31.582032c7.214843-1.273437 14.589843 1.445313 19.144531 7.179688 8.171875 10.28125 20.300781 17.976562 34.75 20.835937 30.40625 6.015625 59.515625-11.664062 65.023437-39.492187 3.738282-18.890625-4.367187-37.597656-19.472656-49.546875zm0 0" fill="#f3e5b7"/><path d="m48.605469 64.644531c-23.453125 2.128907-43.257813 17.96875-47.699219 40.417969-3.738281 18.890625 4.367188 37.597656 19.46875 49.546875 4.523438 3.578125 5.644531 9.925781 2.617188 14.835937-10.105469 16.394532-11.324219 36.742188-1.351563 53.21875 14.691406 24.265626 48.09375 30.925782 74.609375 14.871094 12.597656-7.625 21.363281-19.011718 25.527344-31.460937 2.320312-6.949219 8.320312-12.027344 15.535156-13.296875l32.511719-5.734375c-83.164063-11.335938-122.308594-73.957031-121.21875-122.398438zm0 0" fill="#e8d8a5"/><path d="m177.796875 149.265625c-1.945313-11.015625-14.734375-17.972656-28.570313-15.53125-13.835937 2.4375-23.476562 13.347656-21.535156 24.363281 1.941406 11.019532 14.734375 17.976563 28.570313 15.535156 13.835937-2.4375 23.476562-13.347656 21.535156-24.367187zm0 0" fill="#eb8d9a"/><path d="m263.503906 134.136719c1.945313 11.019531 14.734375 17.972656 28.570313 15.535156 13.835937-2.4375 23.476562-13.347656 21.535156-24.367187-1.945313-11.015626-14.734375-17.972657-28.570313-15.53125-13.835937 2.4375-23.476562 13.347656-21.535156 24.363281zm0 0" fill="#eb8d9a"/><path d="m163.835938 138.703125c-3.570313 0-6.734376-2.558594-7.375-6.199219l-1.5625-8.847656c-.71875-4.078125 2.003906-7.96875 6.085937-8.6875 4.078125-.714844 7.96875 2.003906 8.6875 6.082031l1.5625 8.847657c.71875 4.082031-2.003906 7.96875-6.085937 8.6875-.441407.078124-.878907.117187-1.3125.117187zm0 0" fill="#495059"/><path d="m270.425781 119.910156c-3.570312 0-6.734375-2.5625-7.375-6.199218l-1.5625-8.847657c-.71875-4.082031 2.007813-7.96875 6.085938-8.6875 4.082031-.71875 7.96875 2.003907 8.6875 6.082031l1.5625 8.847657c.71875 4.082031-2.007813 7.96875-6.085938 8.6875-.441406.078125-.878906.117187-1.3125.117187zm0 0" fill="#495059"/><path d="m215.058594 136.386719c-5.996094 0-11.867188-2.046875-16.613282-5.878907-3.222656-2.601562-3.722656-7.324218-1.121093-10.546874 2.605469-3.222657 7.324219-3.722657 10.546875-1.121094 2.574218 2.082031 5.914062 2.945312 9.164062 2.371094 3.25-.570313 6.09375-2.527344 7.800782-5.363282 2.136718-3.546875 6.746093-4.691406 10.292968-2.550781 3.550782 2.136719 4.691406 6.746094 2.554688 10.292969-3.945313 6.550781-10.523438 11.070312-18.042969 12.394531-1.523437.269531-3.058594.402344-4.582031.402344zm0 0" fill="#495059"/><path d="m193.320312 228.027344c-11.53125-2.464844-24.234374-1.382813-36.242187 3.914062-28.355469 12.511719-42.058594 43.695313-30.609375 69.648438 7.773438 17.617187 25.144531 28.292968 44.367188 29.417968 5.757812.335938 10.316406 4.894532 10.652343 10.652344 1.128907 19.226563 11.800781 36.59375 29.421875 44.367188 25.953125 11.453125 57.132813-2.25 69.644532-30.609375-78.125-7.011719-102.363282-82.113281-87.234376-127.390625zm0 0" fill="#e8d8a5"/></svg>