<svg height="512pt" viewBox="0 -57 512.0003 512" width="512pt" xmlns="http://www.w3.org/2000/svg"><path d="m511.363281 83.710938-3.21875-6.527344v-11.242188c-2.085937-7.894531-4.980469-15.460937-8.597656-22.601562.003906.003906-6.253906-6.140625-6.25-6.136719l-30.851563-7.976563-8.097656 8.097657c-3.726562 3.726562-9.910156 3.355469-13.097656-.839844-16.871094-22.203125-43.574219-36.53125-73.625-36.484375-51.019531.078125-92.660156 42.277344-92.089844 93.292969.191406 17.023437 4.996094 32.941406 13.222656 46.558593 17.632813 42.746094 60.066407 72.648438 109.375 71.769532 62.539063-1.117188 113.328126-52.410156 113.863282-114.953125.039062-4.386719-.179688-8.710938-.617188-12.972657zm0 0" fill="#f9da60"/><path d="m50.558594 249.292969c-7.011719-4.160157-12.765625-11.066407-18.203125-17.035157-17.511719-19.230468-32.917969-42.691406-32.339844-69.640624.285156-7.503907 5.421875-14.046876 13.464844-13.742188 6.15625.234375 11.144531 4.734375 12.230469 10.542969 4.503906 24.140625 25.933593 41.777343 46.085937 53.507812 10.964844 6.378907 15.808594 19.902344 8.207031 31.054688-6.929687 10.160156-19.800781 11.042969-29.445312 5.3125zm0 0" fill="#d67046"/><path d="m80.003906 243.976562c7.601563-11.148437 2.757813-24.671874-8.207031-31.054687-12.546875-7.300781-25.585937-16.894531-34.730469-28.921875-6.171875 6.605469-11.699218 13.714844-16.46875 21.246094-1.460937 2.304687-2.839844 4.636718-4.140625 6.984375 4.761719 7.105469 10.21875 13.789062 15.898438 20.03125 5.433593 5.96875 11.191406 12.871093 18.203125 17.035156 9.644531 5.726563 22.515625 4.84375 29.445312-5.320313zm0 0" fill="#ca5e30"/><path d="m427.039062 207.402344-144.707031-22.148438c-73.355469 15.9375-59.960937-23.941406-137.285156-23.941406-71.417969 0-145.675781 74.488281-108.8125 152.570312 5.597656 11.859376 17.5625 19.40625 30.675781 19.40625h287.445313c81.988281-41.992187 72.683593-125.886718 72.683593-125.886718zm0 0" fill="#f9da60"/><path d="m67.140625 313.882812c-34.621094-73.335937 28.78125-143.496093 95.785156-151.753906-5.378906-.519531-11.292969-.816406-17.878906-.816406-71.414063 0-145.675781 74.488281-108.8125 152.570312 5.597656 11.859376 17.5625 19.40625 30.675781 19.40625h30.90625c-13.117187.003907-25.078125-7.546874-30.675781-19.40625zm0 0" fill="#ffb258"/><path d="m282.332031 185.253906c-13.476562 2.925782-24.019531 3.96875-32.742187 3.722656 5.304687 11.539063 11.839844 22.527344 19.796875 32.484376 20.269531 25.371093 47.363281 40.527343 78.359375 43.828124 3.894531.414063 7.855468.625 11.769531.625h.003906c25.191407 0 47.960938-8.25 64.914063-23.070312 4.261718-20.464844 2.605468-35.441406 2.605468-35.441406zm0 0" fill="#ffb258"/><path d="m508.144531 65.941406-3.289062 3.035156c-.28125.261719-.359375.316407-.578125.589844-1 1.015625-11.933594 11.308594-40.632813 6.789063-4.207031-.664063-8.167969 2.21875-8.832031 6.433593-.664062 4.214844 2.214844 8.167969 6.429688 8.832032 5.933593.933594 11.304687 1.332031 16.15625 1.332031 17.691406 0 28.425781-5.300781 33.96875-9.246094-.625-6.070312-1.699219-12.007812-3.222657-17.765625zm0 0" fill="#3a3c4c"/><path d="m417.734375 74.898438c-2.644531 0-5.222656-1.359376-6.664063-3.808594l-7.78125-13.21875c-2.167968-3.675782-.9375-8.410156 2.738282-10.578125 3.675781-2.164063 8.414062-.9375 10.578125 2.738281l7.78125 13.21875c2.164062 3.679688.9375 8.414062-2.738281 10.578125-1.230469.726563-2.582032 1.070313-3.914063 1.070313zm0 0" fill="#3a3c4c"/><path d="m208.371094 333.292969c0 35.707031-28.949219 64.65625-64.65625 64.65625-35.710938 0-64.660156-28.949219-64.660156-64.65625 0-35.710938 28.949218-64.660157 64.660156-64.660157 35.707031 0 64.65625 28.949219 64.65625 64.660157zm0 0" fill="#d67046"/><path d="m169.042969 333.292969c0 13.988281-11.339844 25.328125-25.328125 25.328125-13.992188 0-25.332032-11.339844-25.332032-25.328125 0-13.992188 11.339844-25.332031 25.332032-25.332031 13.988281 0 25.328125 11.339843 25.328125 25.332031zm0 0" fill="#f9da60"/><path d="m413.835938 333.292969c0 35.707031-28.945313 64.65625-64.65625 64.65625-35.710938 0-64.660157-28.949219-64.660157-64.65625 0-35.710938 28.949219-64.660157 64.660157-64.660157 35.710937 0 64.65625 28.949219 64.65625 64.660157zm0 0" fill="#d67046"/><path d="m374.507812 333.292969c0 13.988281-11.339843 25.328125-25.328124 25.328125-13.988282 0-25.332032-11.339844-25.332032-25.328125 0-13.992188 11.34375-25.332031 25.332032-25.332031 13.988281 0 25.328124 11.339843 25.328124 25.332031zm0 0" fill="#f9da60"/><path d="m486.882812 23.566406c-4.429687-5.574218-12.742187-6.039062-17.777343-1l-6.660157 6.660156c6.046876 7.824219 15.113282 13.296876 25.710938 14.519532 3.902344.449218 7.730469.289062 11.394531-.402344-3.558593-7.03125-7.808593-13.65625-12.667969-19.777344zm0 0" fill="#3a3c4c"/><path d="m326.898438 53.769531c-19.375-26.1875-60.984376-15.550781-64.773438 16.800781-7.167969 61.257813 14.957031 156.109376 88.894531 163.988282 26.167969 2.785156 54.089844-7.25 66.164063-32.007813 14.492187-29.71875 3.671875-66.632812-22.996094-85.460937-25.15625-17.753906-48.90625-38.476563-67.289062-63.320313zm0 0" fill="#d67046"/></svg>