<?xml version="1.0" encoding="iso-8859-1"?>
<!-- Generator: Adobe Illustrator 19.0.0, SVG Export Plug-In . SVG Version: 6.00 Build 0)  -->
<svg version="1.1" id="Capa_1" xmlns="http://www.w3.org/2000/svg" xmlns:xlink="http://www.w3.org/1999/xlink" x="0px" y="0px"
	 viewBox="0 0 512 512" style="enable-background:new 0 0 512 512;" xml:space="preserve">
<path style="fill:#DB8400;" d="M484.76,58.968l-25.062,16.486c22.301,33.901,27.92,64.253,16.701,90.213
	c-6.131,14.186-15.912,23.504-20.911,27.612h-214.22c-0.408-19.158-1.054-52.577-1.054-72.13c0-25.506-8.637-48.627-24.317-65.105
	c-17.023-17.888-41.231-27.343-70.005-27.343c-48.604,0-81.896,39.625-91.746,82.29L0,135.939v51.255l99.845,20.716l30.482,100.429
	l13.906,27.813l9.528,147.146h63.4l7.558-118.509h84.169c18.596,0,36.458-6.139,52.429-13.513l8.393,14.687l7.384,117.335h63.394
	l11.542-174.983c8.974-11.275,28.896-42.559,24.298-93.38c10.186-8.8,27.408-27.296,33.47-55.701
	C516.448,128.067,508.025,94.332,484.76,58.968z"/>
<rect x="106.665" y="100.325" style="fill:#402600;" width="33.058" height="33.058"/>
<polygon style="fill:#804D00;" points="21.666,135.649 0,135.649 0,168.712 "/>
<path style="fill:#BF7300;" d="M484.76,58.968l-25.062,16.486c22.301,33.901,27.92,64.253,16.701,90.213
	c-6.131,14.186-15.912,23.504-20.911,27.612H279.045V364.79h29.844c18.596,0,36.458-6.139,52.429-13.513l8.393,14.687l7.384,117.335
	h63.394l11.541-174.984c8.974-11.275,28.896-42.559,24.298-93.38c10.186-8.8,27.408-27.296,33.47-55.701
	C516.448,128.067,508.025,94.332,484.76,58.968z"/>
<path style="fill:#402600;" d="M221.636,244.234c-31.314,0-58.035-24.052-60.761-55.814c-0.708-8.258,0.429-24.716,18.399-72.105
	c9.465-24.957,19.038-46.411,19.441-47.312c2.226-4.978,6.979-8.356,12.41-8.822c5.434-0.464,10.689,2.053,13.731,6.58
	c0.551,0.819,13.639,20.329,27.216,43.31c25.78,43.636,29.703,59.66,30.412,67.917c2.876,33.528-22.062,63.145-55.589,66.021
	C225.131,244.16,223.375,244.234,221.636,244.234z"/>
<g>
</g>
<g>
</g>
<g>
</g>
<g>
</g>
<g>
</g>
<g>
</g>
<g>
</g>
<g>
</g>
<g>
</g>
<g>
</g>
<g>
</g>
<g>
</g>
<g>
</g>
<g>
</g>
<g>
</g>
</svg>
